IKResults
version=1
nRows=16
nColumns=24
inDegrees=yes

Units are S.I. units (second, meters, Newtons, ...)
If the header above contains a line with 'inDegrees', this indicates whether rotational values are in degrees (yes) or radians (no).

endheader
time	pelvis_tilt	pelvis_list	pelvis_rotation	pelvis_tx	pelvis_ty	pelvis_tz	hip_flexion_r	hip_adduction_r	hip_rotation_r	knee_angle_r	ankle_angle_r	subtalar_angle_r	mtp_angle_r	hip_flexion_l	hip_adduction_l	hip_rotation_l	knee_angle_l	ankle_angle_l	subtalar_angle_l	mtp_angle_l	lumbar_extension	lumbar_bending	lumbar_rotation
5.300000	13.644591	1.656157	-180.947248	0.200729	0.848859	-1.207229	20.377958	-11.128544	-34.069185	-15.630347	1.525757	8.199621	0.000000	21.714312	-15.398380	-28.098429	-18.167897	3.113929	6.367007	0.000000	0.181138	2.715256	1.751563
5.305000	13.638127	1.698262	-180.956579	0.200640	0.848923	-1.207253	20.344793	-11.081040	-34.321599	-15.584253	1.346035	8.215662	0.000000	21.718493	-15.448895	-28.087786	-18.196521	3.110682	6.316786	0.000000	0.171756	2.757415	1.765217
5.310000	13.547308	1.715754	-180.883514	0.200582	0.849000	-1.207367	20.131701	-11.026659	-34.354566	-15.388603	1.402836	8.347371	0.000000	21.664166	-15.460103	-27.997535	-18.233996	3.115880	6.308961	0.000000	0.062187	2.737230	1.675762
5.315000	13.557560	1.731370	-180.895106	0.200515	0.849081	-1.207349	20.112100	-10.996028	-34.478737	-15.354161	1.308905	8.343765	0.000000	21.673271	-15.482434	-28.026414	-18.241805	3.104169	6.287402	0.000000	0.067954	2.751839	1.695969
5.320000	13.556651	1.739712	-180.914723	0.200391	0.849103	-1.207304	20.036775	-10.950613	-34.431430	-15.175090	1.352151	8.480424	0.000000	21.666099	-15.493961	-28.001958	-18.260333	3.096345	6.275393	0.000000	0.061457	2.777366	1.668516
5.325000	13.554920	1.789816	-180.940109	0.200321	0.849198	-1.207284	20.010913	-10.890936	-34.617953	-15.158063	1.238053	8.526319	0.000000	21.663907	-15.556671	-28.010053	-18.277598	3.066103	6.255178	0.000000	0.055070	2.837431	1.715097
5.330000	13.509456	1.762745	-180.922697	0.200167	0.849219	-1.207212	19.868745	-10.901830	-34.643022	-14.973027	1.372461	8.792576	0.000000	21.605203	-15.516996	-28.006942	-18.274630	3.092120	6.254976	0.000000	0.018747	2.804442	1.731915
5.335000	13.539761	1.775612	-180.932613	0.200197	0.849283	-1.207251	19.895839	-10.879970	-34.837861	-14.978430	1.171990	8.774270	0.000000	21.639195	-15.536523	-28.018237	-18.282612	3.051797	6.271791	0.000000	0.037569	2.814504	1.735070
5.340000	13.560666	1.785833	-180.932160	0.200185	0.849317	-1.207258	19.879219	-10.852026	-34.911312	-14.902582	1.143843	8.828890	0.000000	21.658549	-15.546787	-28.023755	-18.276674	3.031842	6.281798	0.000000	0.054271	2.824505	1.739105
5.345000	13.603786	1.783592	-180.975831	0.200038	0.849296	-1.207136	19.880261	-10.834891	-34.906428	-14.791603	1.203645	8.986538	0.000000	21.672568	-15.546743	-28.085542	-18.262966	3.032351	6.259338	0.000000	0.116131	2.840058	1.791311
5.350000	13.614161	1.777231	-180.981498	0.199980	0.849328	-1.207113	19.859194	-10.825362	-34.927449	-14.725581	1.227676	8.996461	0.000000	21.670338	-15.536703	-28.097049	-18.250917	3.040139	6.254635	0.000000	0.128837	2.826095	1.793657
5.355000	13.609922	1.786831	-180.994464	0.199961	0.849401	-1.207093	19.852893	-10.810579	-35.005729	-14.747962	1.173255	8.987146	0.000000	21.661471	-15.547801	-28.116710	-18.249398	3.041719	6.243449	0.000000	0.115628	2.837004	1.809913
5.360000	13.613982	1.775065	-180.996034	0.199955	0.849417	-1.207103	19.833225	-10.804778	-35.039382	-14.692438	1.159383	8.994599	0.000000	21.666892	-15.536524	-28.125563	-18.259041	3.042221	6.241464	0.000000	0.119300	2.817378	1.805349
5.365000	13.615575	1.765193	-180.990357	0.199972	0.849403	-1.207122	19.820826	-10.807643	-35.059573	-14.665263	1.149730	9.005362	0.000000	21.679054	-15.530720	-28.129255	-18.276253	3.048370	6.240076	0.000000	0.115452	2.799388	1.798915
5.370000	13.617962	1.760717	-181.005726	0.199987	0.849392	-1.207096	19.825722	-10.807804	-35.067139	-14.659089	1.152831	9.004319	0.000000	21.678165	-15.526758	-28.127000	-18.279519	3.048429	6.240730	0.000000	0.111532	2.801768	1.799968
5.375000	13.646037	1.734126	-181.052604	0.200017	0.849355	-1.207044	19.883423	-10.837670	-35.045343	-14.691721	1.199339	9.055760	0.000000	21.698287	-15.504736	-28.141637	-18.311879	3.040036	6.158880	0.000000	0.141900	2.785915	1.869930
